<svg width="77" height="79" xmlns="http://www.w3.org/2000/svg" xmlns:xlink="http://www.w3.org/1999/xlink" xml:space="preserve" overflow="hidden"><defs><clipPath id="clip0"><rect x="152" y="540" width="77" height="79"/></clipPath></defs><g clip-path="url(#clip0)" transform="translate(-152 -540)"><path d="M25.5979 61.3176C25.5979 61.6262 25.243 61.873 24.7955 61.873 24.2863 61.9193 23.9314 61.6725 23.9314 61.3176 23.9314 61.009 24.2863 60.7621 24.7338 60.7621 25.1967 60.7158 25.5979 60.9627 25.5979 61.3176ZM20.7992 60.6232C20.6912 60.9318 20.9998 61.2867 21.4627 61.3793 21.8639 61.5336 22.3268 61.3793 22.4193 61.0707 22.5119 60.7621 22.2188 60.4072 21.7559 60.2684 21.3547 60.1604 20.9072 60.3146 20.7992 60.6232ZM27.6191 60.3609C27.1717 60.4689 26.8631 60.7621 26.9094 61.117 26.9557 61.4256 27.3568 61.6262 27.8197 61.5182 28.2672 61.4102 28.5758 61.117 28.5295 60.8084 28.4832 60.5152 28.0666 60.3146 27.6191 60.3609ZM37.7719 1.23438C16.3709 1.23438 0 17.4818 0 38.8828 0 55.9943 10.7699 70.6371 26.1533 75.7906 28.1283 76.1455 28.8227 74.9266 28.8227 73.9236 28.8227 72.967 28.7764 67.69 28.7764 64.4498 28.7764 64.4498 17.9756 66.7643 15.7074 59.8518 15.7074 59.8518 13.9484 55.3617 11.418 54.2045 11.418 54.2045 7.88457 51.782 11.6648 51.8283 11.6648 51.8283 15.5068 52.1369 17.6207 55.8092 20.9998 61.765 26.6625 60.0523 28.8689 59.034 29.2238 56.5652 30.2268 54.8525 31.3377 53.8342 22.7125 52.8775 14.0102 51.6277 14.0102 36.7844 14.0102 32.5412 15.1828 30.4119 17.6516 27.6963 17.2504 26.6934 15.9389 22.5582 18.0527 17.2195 21.2775 16.2166 28.6992 21.3855 28.6992 21.3855 31.7852 20.5215 35.1025 20.074 38.3891 20.074 41.6756 20.074 44.993 20.5215 48.0789 21.3855 48.0789 21.3855 55.5006 16.2012 58.7254 17.2195 60.8393 22.5736 59.5277 26.6934 59.1266 27.6963 61.5953 30.4273 63.1074 32.5566 63.1074 36.7844 63.1074 51.674 54.0193 52.8621 45.3941 53.8342 46.8137 55.0531 48.0172 57.3676 48.0172 60.9936 48.0172 66.1934 47.9709 72.6275 47.9709 73.8928 47.9709 74.8957 48.6807 76.1146 50.6402 75.7598 66.0699 70.6371 76.5312 55.9943 76.5312 38.8828 76.5312 17.4818 59.1729 1.23438 37.7719 1.23438ZM14.9977 54.4514C14.7971 54.6057 14.8434 54.9605 15.1057 55.2537 15.3525 55.5006 15.7074 55.6086 15.908 55.408 16.1086 55.2537 16.0623 54.8988 15.8 54.6057 15.5531 54.3588 15.1982 54.2508 14.9977 54.4514ZM13.3313 53.2016C13.2232 53.4021 13.3775 53.649 13.6861 53.8033 13.933 53.9576 14.2416 53.9113 14.3496 53.6953 14.4576 53.4947 14.3033 53.2479 13.9947 53.0936 13.6861 53.001 13.4393 53.0473 13.3313 53.2016ZM18.3305 58.6945C18.0836 58.8951 18.1762 59.358 18.5311 59.6512 18.8859 60.0061 19.3334 60.0523 19.534 59.8055 19.7346 59.6049 19.642 59.142 19.3334 58.8488 18.9939 58.4939 18.5311 58.4477 18.3305 58.6945ZM16.5715 56.4264C16.3246 56.5807 16.3246 56.9818 16.5715 57.3367 16.8184 57.6916 17.235 57.8459 17.4355 57.6916 17.6824 57.491 17.6824 57.0898 17.4355 56.735 17.2195 56.3801 16.8184 56.2258 16.5715 56.4264Z" transform="matrix(1.00612 0 0 1 152 540)"/></g></svg>